<svg width="15" height="16" viewBox="0 0 15 16" fill="none" xmlns="http://www.w3.org/2000/svg">
<path d="M13.4985 4.36441C13.3808 3.20632 13.1933 2.30462 12.8967 1.9502C11.6738 0.49292 3.10764 0.386274 2.13505 1.9502C1.89714 2.33336 1.73028 3.23186 1.6183 4.36633C1.25699 4.40912 0.975616 4.71532 0.975616 5.09018V6.50882C0.975616 6.82429 1.1742 7.09026 1.45144 7.19404C1.38578 9.42849 1.43907 11.7597 1.53741 12.9191C1.53741 13.8141 2.13473 13.6656 2.13473 13.6656H2.69462V14.6318C2.69462 15.0149 3.08702 15.325 3.57046 15.325C4.05454 15.325 4.44694 15.0149 4.44694 14.6318V13.6656H10.9607V14.6318C10.9607 15.0149 11.3528 15.325 11.8369 15.325C12.3203 15.325 12.7127 15.0149 12.7127 14.6318V13.6656H12.8967C12.8967 13.6656 13.5996 13.7626 13.6447 13.3412C13.6447 12.185 13.717 9.62262 13.6574 7.20394C13.9521 7.11102 14.1671 6.8377 14.1671 6.50882V5.09018C14.1675 4.70638 13.8725 4.39507 13.4985 4.36441ZM4.22711 2.15806H10.8046V3.1597H4.22711V2.15806ZM4.321 12.5247C3.80457 12.5247 3.38616 12.1033 3.38616 11.5834C3.38616 11.0639 3.80457 10.6428 4.321 10.6428C4.83743 10.6428 5.25616 11.0639 5.25616 11.5834C5.25616 12.1033 4.83775 12.5247 4.321 12.5247ZM10.7694 12.5247C10.2533 12.5247 9.83394 12.1033 9.83394 11.5834C9.83394 11.0639 10.253 10.6428 10.7694 10.6428C11.2859 10.6428 11.7043 11.0639 11.7043 11.5834C11.7046 12.1033 11.2859 12.5247 10.7694 12.5247ZM11.958 8.40577H3.0737V3.71528H11.958V8.40577Z" fill="white"/>
</svg>
