<svg width="29" height="39" viewBox="0 0 29 39" fill="none" xmlns="http://www.w3.org/2000/svg">
<circle cx="14.5" cy="24.5" r="14.5" fill="#F8AC04"/>
<circle cx="14.5" cy="24.5" r="11.5" fill="#010101"/>
<path d="M20.5878 20.5659C20.4695 19.4018 20.2811 18.4954 19.9829 18.1392C18.7537 16.6743 10.1431 16.5671 9.16545 18.1392C8.9263 18.5243 8.75858 19.4275 8.64602 20.5679C8.28283 20.6109 8 20.9187 8 21.2955V22.7215C8 23.0386 8.19961 23.3059 8.4783 23.4102C8.41229 25.6563 8.46586 27.9996 8.56471 29.165C8.56471 30.0646 9.16513 29.9154 9.16513 29.9154H9.72793V30.8866C9.72793 31.2717 10.1224 31.5834 10.6083 31.5834C11.0949 31.5834 11.4893 31.2717 11.4893 30.8866V29.9154H18.0369V30.8866C18.0369 31.2717 18.431 31.5834 18.9176 31.5834C19.4036 31.5834 19.798 31.2717 19.798 30.8866V29.9154H19.9829C19.9829 29.9154 20.6896 30.0129 20.7348 29.5893C20.7348 28.4271 20.8075 25.8514 20.7476 23.4202C21.0438 23.3268 21.26 23.0521 21.26 22.7215V21.2955C21.2603 20.9097 20.9638 20.5967 20.5878 20.5659ZM11.2684 18.3481H17.88V19.355H11.2684V18.3481ZM11.3628 28.7686C10.8436 28.7686 10.4231 28.3449 10.4231 27.8224C10.4231 27.3002 10.8436 26.8769 11.3628 26.8769C11.8819 26.8769 12.3028 27.3002 12.3028 27.8224C12.3028 28.3449 11.8822 28.7686 11.3628 28.7686ZM17.8446 28.7686C17.3258 28.7686 16.9043 28.3449 16.9043 27.8224C16.9043 27.3002 17.3255 26.8769 17.8446 26.8769C18.3637 26.8769 18.7843 27.3002 18.7843 27.8224C18.7847 28.3449 18.3637 28.7686 17.8446 28.7686ZM19.0394 24.6283H10.109V19.9134H19.0394V24.6283Z" fill="#F8AC04"/>
<path d="M14.2152 5.62504C13.3062 5.62554 12.4066 5.77797 11.57 6.07325C10.7334 6.36853 9.97692 6.80062 9.34565 7.34378C9.27695 7.40411 9.22324 7.47508 9.18758 7.55264C9.15192 7.63021 9.135 7.71284 9.13779 7.79584C9.14059 7.87883 9.16304 7.96055 9.20387 8.03634C9.2447 8.11212 9.30311 8.18049 9.37575 8.23753C9.52247 8.35273 9.71828 8.41482 9.92012 8.41013C10.0201 8.40781 10.1185 8.38917 10.2097 8.35526C10.301 8.32136 10.3833 8.27286 10.452 8.21253C10.9435 7.78911 11.5327 7.45232 12.1845 7.22228C12.8362 6.99224 13.5371 6.87367 14.2453 6.87367C14.9535 6.87367 15.6544 6.99224 16.3062 7.22228C16.9579 7.45232 17.5472 7.78911 18.0386 8.21253C18.1083 8.27159 18.1914 8.31857 18.2832 8.35075C18.3749 8.38294 18.4734 8.39969 18.573 8.40003C18.7201 8.39957 18.8638 8.36333 18.9863 8.29579C19.1089 8.22825 19.2049 8.13237 19.2625 8.02C19.3202 7.90764 19.3369 7.78371 19.3107 7.66353C19.2845 7.54335 19.2164 7.43219 19.1149 7.34378C18.4801 6.79759 17.7188 6.36373 16.8767 6.06835C16.0346 5.77297 15.1293 5.62217 14.2152 5.62504Z" fill="black"/>
<path d="M21.5309 4.95628C19.5668 3.3829 16.9443 2.50366 14.2153 2.50366C11.4862 2.50366 8.86367 3.3829 6.89961 4.95628C6.77259 5.07357 6.70367 5.2264 6.70668 5.38411C6.70969 5.54183 6.7844 5.69277 6.91583 5.80665C7.04726 5.92053 7.22568 5.98894 7.41531 5.99814C7.60493 6.00735 7.79174 5.95667 7.93825 5.85628C9.62235 4.50449 11.873 3.74886 14.2153 3.74886C16.5575 3.74886 18.8082 4.50449 20.4923 5.85628C20.6318 5.96796 20.8178 6.03064 21.0116 6.03128C21.113 6.03096 21.2132 6.01363 21.3063 5.98034C21.3995 5.94704 21.4835 5.89847 21.5535 5.83753C21.6907 5.71797 21.7653 5.55817 21.7611 5.39304C21.7569 5.22791 21.6741 5.07089 21.5309 4.95628Z" fill="black"/>
</svg>
