<svg width="18" height="18" viewBox="0 0 18 18" fill="none" xmlns="http://www.w3.org/2000/svg">
<path d="M8.99994 8.25C9.62126 8.25 10.1249 7.74632 10.1249 7.125C10.1249 6.50368 9.62126 6 8.99994 6C8.37862 6 7.87494 6.50368 7.87494 7.125C7.87494 7.74632 8.37862 8.25 8.99994 8.25Z" fill="#231F20"/>
<path d="M9.00043 1.5C7.41947 1.49992 5.90237 2.12382 4.77886 3.23609C3.65535 4.34837 3.01624 5.85912 3.00043 7.44C3.00043 11.55 8.28793 16.125 8.51293 16.32C8.64878 16.4362 8.82166 16.5 9.00043 16.5C9.17919 16.5 9.35208 16.4362 9.48793 16.32C9.75043 16.125 15.0004 11.55 15.0004 7.44C14.9846 5.85912 14.3455 4.34837 13.222 3.23609C12.0985 2.12382 10.5814 1.49992 9.00043 1.5ZM9.00043 9.75C8.48125 9.75 7.97373 9.59605 7.54206 9.30761C7.11038 9.01917 6.77392 8.6092 6.57524 8.12954C6.37656 7.64989 6.32458 7.12209 6.42587 6.61289C6.52715 6.10369 6.77716 5.63596 7.14427 5.26884C7.51139 4.90173 7.97912 4.65172 8.48832 4.55044C8.99752 4.44915 9.52532 4.50114 10.005 4.69982C10.4846 4.8985 10.8946 5.23495 11.183 5.66663C11.4715 6.09831 11.6254 6.60582 11.6254 7.125C11.6254 7.82119 11.3489 8.48887 10.8566 8.98115C10.3643 9.47344 9.69662 9.75 9.00043 9.75Z" fill="#231F20"/>
</svg>
