<svg width="15" height="19" viewBox="0 0 15 19" fill="none" xmlns="http://www.w3.org/2000/svg">
<path d="M12.4999 9.44011C12.4999 9.02444 12.2201 8.68747 11.8749 8.68747C11.5298 8.68747 11.2499 9.02444 11.2499 9.44011C11.2499 9.85578 11.5298 10.1927 11.8749 10.1927C12.2201 10.1927 12.4999 9.85578 12.4999 9.44011Z" fill="#231F20"/>
<path d="M8.74995 9.44011C8.74993 10.4142 9.06358 11.3504 9.62495 12.0518C9.74015 12.1955 9.89805 12.2782 10.0639 12.2817C10.2298 12.2853 10.39 12.2093 10.5093 12.0706C10.6287 11.9319 10.6974 11.7417 10.7003 11.542C10.7032 11.3423 10.6402 11.1493 10.5249 11.0056C10.1999 10.5782 10.0197 10.0197 10.0197 9.44011C10.0197 8.86057 10.1999 8.30205 10.5249 7.87463C10.6402 7.73091 10.7032 7.53796 10.7003 7.33824C10.6974 7.13851 10.6287 6.94837 10.5093 6.80964C10.39 6.67091 10.2298 6.59496 10.0639 6.59849C9.89805 6.60201 9.74015 6.68474 9.62495 6.82846C9.06358 7.52982 8.74993 8.466 8.74995 9.44011V9.44011Z" fill="#231F20"/>
<path d="M5.62493 9.4401C5.62542 10.3491 5.77785 11.2487 6.07313 12.0853C6.36842 12.9219 6.80051 13.6784 7.34367 14.3097C7.404 14.3784 7.47497 14.4321 7.55253 14.4677C7.63009 14.5034 7.71273 14.5203 7.79572 14.5175C7.87871 14.5147 7.96044 14.4923 8.03622 14.4514C8.11201 14.4106 8.18037 14.3522 8.23742 14.2796C8.35262 14.1329 8.41471 13.937 8.41002 13.7352C8.4077 13.6353 8.38905 13.5368 8.35515 13.4456C8.32124 13.3543 8.27274 13.272 8.21242 13.2033C7.789 12.7118 7.4522 12.1226 7.22216 11.4709C6.99212 10.8191 6.87356 10.1182 6.87356 9.41C6.87356 8.70181 6.99212 8.0009 7.22216 7.34914C7.4522 6.69738 7.789 6.10816 8.21242 5.6167C8.27147 5.547 8.31845 5.46387 8.35064 5.37214C8.38282 5.28042 8.39957 5.18191 8.39992 5.08233C8.39945 4.93525 8.36321 4.79155 8.29567 4.669C8.22813 4.54645 8.13226 4.45042 8.01989 4.39277C7.90752 4.33512 7.78359 4.31839 7.66341 4.34463C7.54323 4.37087 7.43207 4.43894 7.34367 4.54043C6.79747 5.17521 6.36362 5.93656 6.06824 6.77862C5.77285 7.62067 5.62206 8.52601 5.62493 9.4401V9.4401Z" fill="#231F20"/>
<path d="M4.9562 2.12442C3.38281 4.08849 2.50358 6.71106 2.50358 9.44007C2.50358 12.1691 3.38281 14.7916 4.9562 16.7557C5.07348 16.8827 5.22631 16.9516 5.38403 16.9486C5.54174 16.9456 5.69268 16.8709 5.80657 16.7395C5.92045 16.6081 5.98886 16.4296 5.99806 16.24C6.00727 16.0504 5.95659 15.8636 5.8562 15.7171C4.5044 14.033 3.74878 11.7823 3.74878 9.44007C3.74878 7.09781 4.5044 4.84717 5.8562 3.16306C5.96787 3.02354 6.03055 2.83753 6.0312 2.64374C6.03087 2.54236 6.01355 2.4421 5.98025 2.34898C5.94696 2.25586 5.89839 2.1718 5.83745 2.10184C5.71789 1.96462 5.55808 1.88997 5.39295 1.8942C5.22783 1.89843 5.07081 1.9812 4.9562 2.12442V2.12442Z" fill="#231F20"/>
</svg>
