<svg width="20" height="20" viewBox="0 0 20 20" fill="none" xmlns="http://www.w3.org/2000/svg">
<path d="M5.55051 2.46692H2.4668V5.55063H5.55051V2.46692Z" fill="black"/>
<path d="M5.55051 14.4493H2.4668V17.5331H5.55051V14.4493Z" fill="black"/>
<path d="M0 10.6167V11.9824V12.8634V20H8.01764V15.6828H9.86785V17.6652V17.7974V19.9119H12.1145V18.0617H13.8766V19.9119H16.1233V17.7974H17.7533V19.9119H20V17.6652H17.8855V15.5507H15.6388V17.6652H14.1628V13.304H12.1145V11.4538H14.2291V13.5683H16.4757V12.1586H17.7533V13.0837V14.2732V15.3304H20V14.2732V13.0837V12.0265H18.5903V10.0441H20V8.01764V7.7974V0H11.9824V0.0147732H9.86785V2.46693H8.01764V0H0V7.0925V8.01764V9.33919H1.40967V10.6167H0V10.6167ZM6.6079 18.5903H1.40967V13.3921H6.6079V18.5903ZM9.99997 13.5683H11.9165V15.5507H9.99997V13.5683ZM9.99997 9.33919H11.784V11.3216H9.99997V9.33919V9.33919ZM17.7533 9.91191H16.5416V9.20707H12.1145V8.01764H17.7532V9.91191H17.7533ZM13.392 1.40967H18.5903V6.6079H13.392V1.40967V1.40967ZM11.9824 7.0925H9.99997V2.70201H11.9824V7.0925ZM9.86785 9.20707H8.02327V7.22468H9.86785V9.20707ZM1.40967 1.40967H6.6079V6.6079H1.40967V1.40967ZM5.77658 8.01764V9.33919H7.75334V11.4537H9.86785V13.4361H8.01764V11.9824H2.24669V11.4537H3.52425H3.65643H5.77094V9.20701H3.65637H3.52419H2.24669V8.01757H5.77658V8.01764Z" fill="black"/>
<path d="M17.5329 2.46692H14.4492V5.55063H17.5329V2.46692Z" fill="black"/>
</svg>
