<svg width="21" height="20" viewBox="0 0 21 20" fill="none" xmlns="http://www.w3.org/2000/svg">
<path d="M5.16667 8.83317V18.1665C5.16667 18.4759 5.04375 18.7727 4.82496 18.9915C4.60617 19.2103 4.30942 19.3332 4 19.3332H1.66667C1.35725 19.3332 1.0605 19.2103 0.841709 18.9915C0.622916 18.7727 0.5 18.4759 0.5 18.1665V9.99984C0.5 9.69042 0.622916 9.39367 0.841709 9.17488C1.0605 8.95609 1.35725 8.83317 1.66667 8.83317H5.16667ZM5.16667 8.83317C6.40435 8.83317 7.59133 8.34151 8.4665 7.46634C9.34167 6.59117 9.83334 5.40418 9.83334 4.1665V2.99984C9.83334 2.381 10.0792 1.78751 10.5168 1.34992C10.9543 0.912336 11.5478 0.666504 12.1667 0.666504C12.7855 0.666504 13.379 0.912336 13.8166 1.34992C14.2542 1.78751 14.5 2.381 14.5 2.99984V8.83317H18C18.6188 8.83317 19.2123 9.07901 19.6499 9.51659C20.0875 9.95417 20.3333 10.5477 20.3333 11.1665L19.1667 16.9998C18.9989 17.7156 18.6806 18.3301 18.2598 18.751C17.8389 19.1718 17.3383 19.3761 16.8333 19.3332H8.66667C7.73841 19.3332 6.84817 18.9644 6.19179 18.308C5.53542 17.6517 5.16667 16.7614 5.16667 15.8332" stroke="black" stroke-linecap="round" stroke-linejoin="round"/>
</svg>
